<svg xmlns="http://www.w3.org/2000/svg" width="2464" height="1116" fill="none"><path fill="url(#a)" d="M395 320h1600v659H395z"/><rect width="183.103" height="620.785" fill="url(#b)" fill-opacity=".32" rx="91.551" transform="scale(-1 1) rotate(70.386 -1426.307 -988.307)"/><path fill="url(#c)" fill-rule="evenodd" d="M1995 1115.72V979H395v136.72c162.983-56.31 460.274-94 800-94 339.73 0 637.02 37.69 800 94Z" clip-rule="evenodd"/><rect width="183.103" height="620.785" x="807" y="434.406" fill="url(#d)" fill-opacity=".32" rx="91.551" transform="rotate(-38.669 807 434.406)"/><rect width="183.103" height="620.785" x="388" y="114.406" fill="#7373FF" fill-opacity=".32" rx="91.551" transform="rotate(-38.669 388 114.406)"/><rect width="183.103" height="620.785" x="72" y="309.406" fill="#7373FF" fill-opacity=".32" rx="91.551" transform="rotate(-38.669 72 309.406)"/><rect width="183.103" height="620.785" y="628.406" fill="#7373FF" fill-opacity=".32" rx="91.551" transform="rotate(-38.669 0 628.406)"/><rect width="183.103" height="620.785" fill="url(#e)" fill-opacity=".32" rx="91.551" transform="scale(1 -1) rotate(24.438 2451.723 3788.105)"/><defs><linearGradient id="a" x1="1427" x2="1932.66" y1="878.796" y2="268.361" gradientUnits="userSpaceOnUse"><stop stop-color="#6B50FF"/><stop offset="1" stop-color="#A145FF"/></linearGradient><linearGradient id="b" x1="91.551" x2="123.384" y1="0" y2="580.434" gradientUnits="userSpaceOnUse"><stop stop-color="#7373FF"/><stop offset="1" stop-color="#7373FF" stop-opacity="0"/></linearGradient><linearGradient id="c" x1="1995" x2="1647.5" y1="928.5" y2="905.5" gradientUnits="userSpaceOnUse"><stop stop-color="#7E55FF"/><stop offset="1" stop-color="#6B50FF"/></linearGradient><linearGradient id="d" x1="898.551" x2="930.384" y1="434.406" y2="1014.84" gradientUnits="userSpaceOnUse"><stop offset=".236" stop-color="#7373FF"/><stop offset="1" stop-color="#7373FF" stop-opacity="0"/></linearGradient><linearGradient id="e" x1="91.551" x2="123.384" y1="0" y2="580.434" gradientUnits="userSpaceOnUse"><stop offset=".236" stop-color="#7373FF"/><stop offset="1" stop-color="#7373FF" stop-opacity="0"/></linearGradient></defs></svg>